<?xml version="1.0" standalone="no"?>
<!DOCTYPE svg PUBLIC "-//W3C//DTD SVG 20010904//EN"
 "http://www.w3.org/TR/2001/REC-SVG-20010904/DTD/svg10.dtd">
<svg version="1.0" xmlns="http://www.w3.org/2000/svg"
 width="1200.000000pt" height="1200.000000pt" viewBox="0 0 1200.000000 1200.000000"
 preserveAspectRatio="xMidYMid meet">

<g transform="translate(0.000000,1200.000000) scale(0.100000,-0.100000)"
fill="#000000" stroke="none">
<path d="M4470 9705 l0 -75 415 0 415 0 0 75 0 75 -415 0 -415 0 0 -75z"/>
<path d="M5470 9705 l0 -75 590 0 590 0 0 75 0 75 -590 0 -590 0 0 -75z"/>
<path d="M6840 9705 l0 -75 375 0 375 0 0 75 0 75 -375 0 -375 0 0 -75z"/>
<path d="M4470 9405 l0 -75 415 0 415 0 0 75 0 75 -415 0 -415 0 0 -75z"/>
<path d="M5470 9405 l0 -75 590 0 590 0 0 75 0 75 -590 0 -590 0 0 -75z"/>
<path d="M6840 9405 l0 -75 375 0 375 0 0 75 0 75 -375 0 -375 0 0 -75z"/>
<path d="M4470 9115 l0 -75 415 0 415 0 0 75 0 75 -415 0 -415 0 0 -75z"/>
<path d="M5470 9115 l0 -75 590 0 590 0 0 75 0 75 -590 0 -590 0 0 -75z"/>
<path d="M6840 9115 l0 -75 375 0 375 0 0 75 0 75 -375 0 -375 0 0 -75z"/>
<path d="M3004 8855 c-84 -41 -155 -112 -190 -191 -19 -43 -24 -71 -24 -138 0
-75 3 -90 36 -154 38 -78 87 -127 169 -170 45 -25 60 -27 160 -27 92 0 118 4
158 22 63 29 148 111 176 170 12 26 26 56 32 65 11 22 12 162 1 186 -5 9 -21
43 -37 75 -58 120 -188 197 -333 197 -67 0 -86 -5 -148 -35z"/>
<path d="M8885 8871 c-76 -30 -135 -72 -174 -122 -145 -183 -88 -430 124 -542
56 -30 66 -32 165 -32 96 0 110 3 161 29 235 119 280 417 89 590 -97 86 -259
121 -365 77z"/>
<path d="M6760 8740 c-99 -4 -115 -7 -118 -22 -3 -13 3 -18 21 -18 37 0 189
-27 307 -55 172 -41 262 -68 435 -130 221 -80 247 -92 450 -195 599 -304 1069
-717 1447 -1270 136 -198 288 -478 373 -685 52 -125 68 -150 95 -147 55 6 57
21 39 237 -6 72 -19 175 -30 230 -10 55 -23 134 -29 175 -5 41 -19 109 -30
150 -11 41 -20 85 -20 98 0 12 -6 38 -14 56 -8 19 -17 63 -21 98 -6 53 -4 68
9 81 21 20 63 14 128 -19 26 -13 54 -24 61 -24 8 0 22 -9 31 -19 10 -11 28
-22 41 -25 14 -4 40 -16 58 -29 19 -12 53 -33 76 -47 23 -14 67 -44 96 -67 30
-24 57 -43 60 -43 4 0 28 -17 54 -39 72 -60 101 -70 101 -36 0 26 -231 285
-431 482 -208 203 -440 389 -694 556 l-130 84 -125 5 c-107 4 -133 8 -183 31
-73 33 -158 113 -192 182 l-27 53 -121 47 c-589 229 -1156 330 -1717 305z"/>
<path d="M4905 8729 c-164 -16 -369 -40 -410 -49 -22 -5 -83 -16 -135 -26
-201 -36 -531 -132 -724 -211 -66 -27 -69 -30 -88 -81 -26 -70 -110 -159 -190
-203 l-63 -34 -160 0 -160 0 -150 -99 c-404 -267 -740 -572 -1023 -930 -50
-62 -60 -81 -51 -92 6 -8 16 -14 21 -14 5 0 42 27 81 61 111 94 280 201 409
257 65 29 127 52 138 52 11 0 29 -9 41 -21 19 -19 20 -29 16 -93 -3 -39 -10
-93 -16 -121 -47 -208 -152 -1013 -137 -1050 10 -27 20 -11 64 100 80 204 177
407 265 555 119 200 146 242 235 365 146 203 250 325 451 526 232 232 358 336
596 495 166 111 414 244 585 314 30 12 70 29 88 37 49 21 322 111 394 129 137
34 277 64 368 79 52 9 99 20 103 24 5 5 1 16 -8 25 -14 14 -45 16 -233 15
-119 -1 -257 -6 -307 -10z"/>
<path d="M5693 8375 c-426 -48 -823 -167 -1193 -356 -985 -502 -1674 -1446
-1854 -2539 -26 -158 -52 -437 -42 -447 16 -17 34 11 40 64 4 32 20 121 37
197 153 699 553 1378 1089 1850 992 875 2347 1113 3572 628 792 -314 1458
-938 1834 -1717 140 -290 225 -546 285 -859 28 -142 35 -166 51 -166 22 0 22
-8 3 176 -72 694 -298 1282 -695 1810 -401 531 -962 947 -1575 1169 -245 89
-459 141 -736 181 -159 22 -650 28 -816 9z"/>
<path d="M7720 7995 c0 -2 17 -13 38 -23 123 -62 373 -226 510 -336 429 -342
776 -764 1008 -1226 106 -212 141 -294 211 -495 57 -166 132 -456 133 -512 0
-23 2 -23 115 -23 63 0 115 4 115 8 0 46 -49 228 -80 297 -5 11 -12 31 -16 45
-3 14 -15 43 -25 65 -10 22 -25 58 -34 80 -36 90 -63 148 -140 300 -397 784
-980 1384 -1717 1769 -107 56 -118 60 -118 51z"/>
<path d="M3965 7742 c-249 -167 -379 -275 -611 -506 -396 -397 -682 -825 -932
-1396 -37 -84 -50 -130 -117 -407 l-13 -53 103 0 103 0 5 38 c20 146 117 476
205 697 148 370 418 801 684 1091 30 32 63 69 74 82 21 26 206 197 298 277 32
28 113 90 180 138 164 119 172 126 161 126 -5 0 -69 -39 -140 -87z"/>
<path d="M7385 6345 c-259 -56 -425 -261 -425 -524 0 -192 79 -345 213 -410
96 -47 169 -63 317 -68 129 -5 229 2 372 27 l65 12 7 146 c4 81 11 205 16 276
7 93 7 133 -1 143 -9 10 -58 13 -220 13 -248 0 -231 10 -227 -142 l3 -103 53
-3 52 -3 0 -48 0 -48 -49 -7 c-106 -14 -191 21 -229 94 -20 39 -23 56 -19 125
6 123 55 198 162 247 70 31 214 31 338 -2 120 -31 120 -31 111 127 l-7 121
-81 17 c-114 24 -360 29 -451 10z"/>
<path d="M3393 6343 c-171 -3 -194 -5 -201 -21 -5 -9 -12 -150 -15 -312 -3
-162 -11 -368 -18 -457 -6 -89 -9 -169 -5 -178 5 -15 35 -16 333 -13 378 5
394 8 474 88 110 110 103 318 -13 396 l-27 19 28 26 c55 50 76 104 76 199 0
92 -18 143 -67 186 -56 52 -154 75 -293 72 -44 -2 -167 -4 -272 -5z m266 -254
c26 -9 31 -16 31 -44 0 -46 -20 -57 -105 -63 l-75 -5 0 62 0 61 59 0 c32 0 72
-5 90 -11z m11 -362 c18 -9 26 -22 28 -48 5 -55 -21 -72 -123 -77 l-85 -5 0
34 c0 19 3 51 6 72 l7 37 71 0 c39 0 82 -6 96 -13z"/>
<path d="M4440 6343 c-141 -3 -167 -6 -177 -20 -10 -12 -13 -72 -13 -214 0
-202 -14 -488 -30 -638 -7 -60 -6 -88 1 -98 15 -18 309 -19 327 -1 8 8 12 62
13 173 1 88 4 189 8 225 l6 65 74 -225 c40 -124 75 -231 77 -237 3 -10 46 -13
173 -13 150 0 171 2 180 17 11 20 12 17 -79 224 -39 87 -70 165 -70 172 0 6
21 23 46 36 116 62 174 215 132 353 -16 55 -78 121 -137 147 -55 23 -199 42
-301 39 -36 -2 -139 -4 -230 -5z m293 -254 c41 -11 57 -36 49 -75 -10 -56 -86
-91 -169 -78 l-45 7 6 36 c3 20 6 55 6 79 l0 42 58 0 c31 0 74 -5 95 -11z"/>
<path d="M6055 6341 l-180 -6 -7 -140 c-3 -77 -12 -257 -18 -400 -6 -143 -15
-293 -19 -333 -4 -39 -3 -79 2 -87 7 -13 48 -15 275 -15 309 0 370 7 469 55
157 77 245 247 246 475 2 227 -103 387 -285 436 -66 17 -247 23 -483 15z m295
-262 c85 -19 121 -77 122 -193 0 -89 -16 -144 -55 -192 -38 -46 -76 -62 -168
-70 l-71 -7 6 214 c4 118 10 222 12 231 8 28 75 35 154 17z"/>
<path d="M5312 6323 c-5 -10 -12 -139 -15 -288 -3 -148 -11 -354 -18 -456 -7
-102 -9 -194 -6 -203 6 -14 28 -16 170 -16 120 0 167 3 174 13 6 7 13 130 16
282 4 149 12 356 18 461 7 105 9 199 6 208 -6 14 -28 16 -171 16 -147 0 -166
-2 -174 -17z"/>
<path d="M8186 6328 c-2 -7 -9 -152 -16 -323 -6 -170 -17 -377 -24 -460 -8
-92 -10 -157 -4 -167 8 -17 37 -18 398 -18 215 0 390 3 391 8 12 149 15 230 7
246 -10 18 -21 18 -224 11 l-214 -7 0 56 0 56 189 0 189 0 7 93 c4 50 5 108 3
127 l-3 35 -182 3 -183 2 0 45 0 45 220 0 220 0 4 23 c13 63 17 209 6 223 -11
12 -73 14 -397 14 -298 0 -384 -3 -387 -12z"/>
<path d="M1988 4834 c-83 -25 -128 -100 -128 -212 0 -158 108 -242 250 -195
l55 18 3 103 3 102 -71 0 -70 0 0 -30 c0 -28 2 -30 40 -30 l40 0 0 -49 c0 -57
-8 -64 -65 -64 -83 0 -130 63 -123 164 5 69 27 106 82 133 38 19 43 18 134 -9
20 -7 22 -4 22 28 0 33 -2 35 -44 46 -56 14 -69 13 -128 -5z"/>
<path d="M4337 4835 c-85 -30 -127 -100 -127 -210 0 -114 43 -182 131 -205 39
-11 98 -5 132 12 10 5 17 20 17 39 0 26 -3 30 -17 24 -67 -27 -105 -27 -150 2
-51 33 -70 145 -35 212 33 66 88 88 170 67 31 -7 32 -6 32 23 0 26 -5 31 -37
40 -49 14 -69 13 -116 -4z"/>
<path d="M4675 4836 c-77 -28 -115 -101 -115 -217 1 -145 94 -229 221 -199 93
23 149 123 136 246 -14 135 -124 213 -242 170z m137 -84 c57 -53 58 -184 1
-243 -54 -58 -140 -41 -173 33 -70 154 62 314 172 210z"/>
<path d="M5475 4838 c-43 -16 -64 -36 -76 -78 -16 -54 7 -103 67 -138 83 -49
108 -75 100 -106 -9 -38 -49 -51 -101 -33 -70 24 -70 25 -73 -10 -4 -40 21
-55 92 -57 93 -2 146 39 146 114 0 46 -23 82 -70 110 -77 46 -101 70 -98 99 5
41 48 57 104 38 24 -8 46 -12 49 -9 10 10 5 50 -9 61 -20 16 -97 22 -131 9z"/>
<path d="M7557 4835 c-85 -30 -127 -100 -127 -210 0 -114 43 -182 131 -205 39
-11 98 -5 132 12 10 5 17 20 17 39 0 26 -3 30 -17 24 -67 -27 -105 -27 -150 2
-51 33 -70 145 -35 212 33 66 88 88 170 67 31 -7 32 -6 32 23 0 26 -5 31 -37
40 -49 14 -69 13 -116 -4z"/>
<path d="M8355 4838 c-43 -16 -64 -36 -76 -78 -16 -54 7 -103 67 -138 83 -49
108 -75 100 -106 -9 -38 -49 -51 -101 -33 -70 24 -70 25 -73 -10 -4 -40 21
-55 92 -57 93 -2 146 39 146 114 0 46 -23 82 -70 110 -77 46 -101 70 -98 99 5
41 48 57 104 38 24 -8 46 -12 49 -9 10 10 5 50 -9 61 -20 16 -97 22 -131 9z"/>
<path d="M9837 4835 c-85 -30 -127 -100 -127 -210 0 -114 43 -182 131 -205 39
-11 98 -5 132 12 10 5 17 20 17 39 0 26 -3 30 -17 24 -67 -27 -105 -27 -150 2
-51 33 -70 145 -35 212 33 66 88 88 170 67 31 -7 32 -6 32 23 0 26 -5 31 -37
40 -49 14 -69 13 -116 -4z"/>
<path d="M10435 4838 c-43 -16 -64 -36 -76 -78 -16 -54 7 -103 67 -138 83 -49
108 -75 100 -106 -9 -38 -49 -51 -101 -33 -70 24 -70 25 -73 -10 -4 -40 21
-55 92 -57 93 -2 146 39 146 114 0 46 -23 82 -70 110 -77 46 -101 70 -98 99 5
41 48 57 104 38 24 -8 46 -12 49 -9 10 10 5 50 -9 61 -20 16 -97 22 -131 9z"/>
<path d="M11547 4835 c-85 -30 -127 -100 -127 -210 0 -114 43 -182 131 -205
39 -11 98 -5 132 12 10 5 17 20 17 39 0 26 -3 30 -17 24 -67 -27 -105 -27
-150 2 -51 33 -70 145 -35 212 33 66 88 88 170 67 31 -7 32 -6 32 23 0 26 -5
31 -37 40 -49 14 -69 13 -116 -4z"/>
<path d="M250 4631 l0 -211 30 0 30 0 0 143 1 142 58 -140 c44 -108 62 -140
76 -140 14 0 32 32 76 140 l58 140 1 -142 0 -143 30 0 30 0 0 210 0 210 -34 0
-33 0 -64 -155 -63 -155 -61 152 -61 153 -37 3 -37 3 0 -210z"/>
<path d="M835 4828 c-82 -230 -135 -384 -135 -395 0 -8 12 -13 29 -13 27 0 31
5 47 55 l18 55 72 0 71 0 19 -52 c17 -48 22 -53 49 -53 21 0 29 4 27 15 -1 8
-32 102 -69 208 -65 190 -66 192 -95 192 -16 0 -31 -6 -33 -12z m53 -145 c11
-32 23 -66 27 -75 6 -16 1 -18 -44 -18 -28 0 -51 3 -51 7 0 9 43 143 46 143 1
0 11 -26 22 -57z"/>
<path d="M1100 4630 l0 -210 30 0 29 0 3 153 3 152 90 -152 c86 -148 91 -153
122 -153 l33 0 0 210 0 210 -30 0 -29 0 -3 -151 -3 -151 -89 151 c-86 148 -89
151 -122 151 l-34 0 0 -210z"/>
<path d="M1615 4828 c-82 -230 -135 -384 -135 -395 0 -8 12 -13 29 -13 27 0
31 5 47 55 l18 55 72 0 71 0 19 -52 c17 -48 22 -53 49 -53 21 0 29 4 27 15 -1
8 -32 102 -69 208 -65 190 -66 192 -95 192 -16 0 -31 -6 -33 -12z m53 -145
c11 -32 23 -66 27 -75 6 -16 1 -18 -44 -18 -28 0 -51 3 -51 7 0 9 43 143 46
143 1 0 11 -26 22 -57z"/>
<path d="M2270 4630 l0 -210 105 0 105 0 0 30 0 30 -75 0 -75 0 0 60 0 59 63
3 c59 3 62 4 65 31 l3 27 -65 0 -66 0 0 60 0 60 70 0 70 0 0 30 0 30 -100 0
-100 0 0 -210z"/>
<path d="M2560 4631 l0 -211 30 0 30 0 0 143 1 142 58 -140 c44 -108 62 -140
76 -140 14 0 32 32 76 140 l58 140 1 -142 0 -143 30 0 30 0 0 210 0 210 -34 0
-33 0 -64 -155 -63 -155 -61 152 -61 153 -37 3 -37 3 0 -210z"/>
<path d="M3050 4630 l0 -210 105 0 105 0 0 30 0 30 -75 0 -75 0 0 60 0 59 63
3 c59 3 62 4 65 31 l3 27 -65 0 -66 0 0 60 0 60 70 0 70 0 0 30 0 30 -100 0
-100 0 0 -210z"/>
<path d="M3340 4630 l0 -210 30 0 29 0 3 153 3 152 90 -152 c86 -148 91 -153
122 -153 l33 0 0 210 0 210 -30 0 -29 0 -3 -151 -3 -151 -89 151 c-86 148 -89
151 -122 151 l-34 0 0 -210z"/>
<path d="M3720 4810 c0 -30 1 -30 55 -30 l55 0 0 -181 0 -180 28 3 27 3 3 178
2 177 50 0 c49 0 50 1 50 30 l0 30 -135 0 -135 0 0 -30z"/>
<path d="M5000 4630 l0 -210 30 0 29 0 3 153 3 152 90 -152 c86 -148 91 -153
122 -153 l33 0 0 210 0 210 -30 0 -29 0 -3 -151 -3 -151 -89 151 c-86 148 -89
151 -122 151 l-34 0 0 -210z"/>
<path d="M5714 4825 c-4 -8 -4 -81 -2 -163 4 -160 14 -196 64 -229 32 -21 108
-23 152 -4 60 25 72 66 72 251 l0 161 -27 -3 -28 -3 -5 -155 c-3 -85 -9 -163
-13 -172 -22 -43 -114 -40 -139 6 -8 13 -14 81 -16 174 l-4 152 -24 0 c-14 0
-27 -7 -30 -15z"/>
<path d="M6100 4630 l0 -211 103 3 c101 3 102 3 102 28 0 24 -3 25 -72 28
l-73 3 0 179 0 180 -30 0 -30 0 0 -210z"/>
<path d="M6330 4810 c0 -30 1 -30 55 -30 l55 0 0 -181 0 -180 28 3 27 3 3 178
2 177 50 0 c49 0 50 1 50 30 l0 30 -135 0 -135 0 0 -30z"/>
<path d="M6765 4828 c-82 -230 -135 -384 -135 -395 0 -8 12 -13 29 -13 27 0
31 5 47 55 l18 55 72 0 71 0 19 -52 c17 -48 22 -53 49 -53 21 0 29 4 27 15 -1
8 -32 102 -69 208 -65 190 -66 192 -95 192 -16 0 -31 -6 -33 -12z m53 -145
c11 -32 23 -66 27 -75 6 -16 1 -18 -44 -18 -28 0 -51 3 -51 7 0 9 43 143 46
143 1 0 11 -26 22 -57z"/>
<path d="M7040 4630 l0 -210 30 0 29 0 3 153 3 152 90 -152 c86 -148 91 -153
122 -153 l33 0 0 210 0 210 -30 0 -29 0 -3 -151 -3 -151 -89 151 c-86 148 -89
151 -122 151 l-34 0 0 -210z"/>
<path d="M7760 4830 c0 -6 24 -62 53 -123 47 -101 53 -121 57 -197 5 -84 5
-85 33 -88 l27 -3 0 74 c0 70 3 81 60 200 33 70 60 131 60 137 0 5 -13 10 -29
10 -26 0 -31 -7 -72 -96 l-44 -96 -42 94 c-38 86 -44 93 -72 96 -18 2 -31 -1
-31 -8z"/>
<path d="M8590 4630 l0 -210 105 0 105 0 0 30 0 30 -75 0 -75 0 0 60 0 59 63
3 c59 3 62 4 65 31 l3 27 -65 0 -66 0 0 60 0 60 70 0 70 0 0 30 0 30 -100 0
-100 0 0 -210z"/>
<path d="M8880 4630 l0 -210 30 0 30 0 0 85 c0 83 1 85 23 85 30 0 46 -18 92
-102 32 -60 40 -68 66 -68 17 0 29 5 29 13 0 7 -22 50 -48 96 l-48 84 27 27
c36 35 45 86 25 134 -20 48 -63 66 -156 66 l-70 0 0 -210z m148 134 c15 -10
22 -25 22 -49 0 -41 -29 -65 -77 -65 l-33 0 0 65 0 65 33 0 c18 0 43 -7 55
-16z"/>
<path d="M9180 4828 c0 -7 30 -102 66 -211 l66 -198 31 3 c30 3 31 4 98 206
53 159 65 204 54 208 -38 15 -48 -1 -101 -156 -29 -87 -54 -148 -58 -140 -3 8
-26 79 -51 158 -45 140 -46 142 -75 142 -17 0 -30 -5 -30 -12z"/>
<path d="M9537 4833 c-14 -14 -6 -45 13 -50 19 -5 20 -14 20 -153 0 -141 -1
-148 -21 -153 -15 -4 -20 -12 -17 -29 3 -21 9 -23 66 -26 l62 -3 0 31 c0 20
-5 30 -15 30 -13 0 -15 23 -15 150 0 127 2 150 15 150 10 0 15 10 15 30 0 30
0 30 -58 30 -32 0 -62 -3 -65 -7z"/>
<path d="M10080 4630 l0 -210 105 0 105 0 0 30 0 30 -75 0 -75 0 0 60 0 59 63
3 c59 3 62 4 65 31 l3 27 -65 0 -66 0 0 60 0 60 70 0 70 0 0 30 0 30 -100 0
-100 0 0 -210z"/>
<path d="M10850 4630 l0 -210 30 0 30 0 0 75 0 75 35 0 c86 0 145 57 145 138
0 94 -49 132 -170 132 l-70 0 0 -210z m155 125 c49 -48 21 -112 -53 -122 l-42
-6 0 77 0 76 35 0 c25 0 44 -8 60 -25z"/>
<path d="M11160 4630 l0 -211 103 3 c101 3 102 3 102 28 0 24 -3 25 -72 28
l-73 3 0 179 0 180 -30 0 -30 0 0 -210z"/>
<path d="M11776 4487 c-11 -8 -17 -23 -14 -38 2 -19 9 -24 33 -24 24 0 31 5
33 23 3 22 -13 52 -27 52 -4 0 -15 -6 -25 -13z"/>
<path d="M3239 4046 c-93 -25 -139 -83 -147 -186 -5 -76 26 -136 88 -170 38
-21 58 -25 132 -25 48 0 91 5 96 10 5 6 12 26 15 46 l5 37 -58 -5 c-72 -7
-115 9 -135 48 -19 36 -19 63 1 104 23 48 69 69 138 62 l56 -6 0 43 c0 42 -1
44 -37 50 -55 9 -102 6 -154 -8z"/>
<path d="M4016 4049 c-95 -22 -146 -82 -153 -182 -4 -52 -1 -69 19 -107 75
-139 354 -128 414 17 18 42 18 135 0 177 -34 82 -157 124 -280 95z m129 -101
c35 -32 46 -75 29 -123 -15 -44 -48 -74 -81 -75 -80 -1 -127 85 -88 160 31 61
94 78 140 38z"/>
<path d="M4475 4053 c-57 -16 -94 -76 -80 -131 3 -14 34 -52 67 -83 46 -42 60
-61 54 -74 -5 -14 -15 -17 -54 -12 -26 2 -55 8 -64 12 -16 6 -18 1 -18 -43 l0
-50 64 -7 c132 -14 206 24 206 106 0 40 -5 47 -66 106 -56 55 -64 67 -52 80 9
12 25 14 66 10 l54 -6 -5 40 c-3 23 -8 43 -11 46 -8 8 -137 13 -161 6z"/>
<path d="M5602 4048 c-56 -12 -126 -78 -141 -133 -23 -84 -2 -170 53 -213 43
-33 127 -47 224 -35 45 6 85 13 89 17 3 3 8 53 11 111 l5 105 -87 0 -86 0 0
-45 c0 -42 2 -45 26 -45 22 0 25 -4 22 -27 -3 -24 -8 -28 -41 -31 -30 -3 -43
2 -67 27 -52 51 -31 139 41 177 33 16 119 16 162 -1 15 -6 17 -1 17 43 l0 49
-46 7 c-62 8 -129 6 -182 -6z"/>
<path d="M7712 4048 c-56 -12 -126 -78 -141 -133 -23 -84 -2 -170 53 -213 43
-33 127 -47 224 -35 45 6 85 13 89 17 3 3 8 53 11 111 l5 105 -87 0 -86 0 0
-45 c0 -42 2 -45 26 -45 22 0 25 -4 22 -27 -3 -24 -8 -28 -41 -31 -30 -3 -43
2 -67 27 -52 51 -31 139 41 177 33 16 119 16 162 -1 15 -6 17 -1 17 43 l0 49
-46 7 c-62 8 -129 6 -182 -6z"/>
<path d="M3527 3963 c-4 -49 -10 -134 -13 -190 l-7 -103 146 0 c158 0 157 0
157 61 l0 29 -85 0 -86 0 6 78 c3 42 8 107 11 145 l5 67 -64 0 -64 0 -6 -87z"/>
<path d="M4750 3928 c0 -68 -3 -153 -7 -190 l-6 -68 65 0 66 0 6 153 c4 83 9
169 12 190 l6 37 -71 0 -71 0 0 -122z"/>
<path d="M4986 3948 c-4 -57 -9 -142 -12 -190 l-6 -88 61 0 60 0 3 108 3 107
60 -107 60 -108 71 0 72 0 6 78 c3 42 8 128 12 190 l6 113 -58 -3 -59 -3 -5
-105 -5 -105 -36 65 c-20 36 -46 84 -58 108 l-21 42 -74 0 -74 0 -6 -102z"/>
<path d="M6090 4005 l0 -45 60 0 60 0 -5 -52 c-2 -29 -7 -95 -10 -145 l-6 -93
66 0 65 0 0 53 c0 30 3 95 6 145 l7 92 58 0 59 0 0 45 0 45 -180 0 -180 0 0
-45z"/>
<path d="M6516 3943 c-4 -60 -9 -145 -12 -190 l-6 -83 65 0 66 0 3 73 3 72 69
3 69 3 -6 -76 -7 -75 64 0 64 0 6 108 c4 59 9 144 12 190 l6 82 -66 0 -66 0 0
-54 c0 -83 -2 -86 -78 -86 l-65 0 7 70 6 70 -64 0 -64 0 -6 -107z"/>
<path d="M7006 3948 c-4 -57 -9 -142 -12 -190 l-6 -88 156 0 156 0 0 45 0 45
-90 0 -90 0 0 30 0 30 80 0 80 0 0 45 0 45 -75 0 c-73 0 -75 1 -75 25 0 25 1
25 89 25 97 0 101 3 101 61 l0 29 -154 0 -154 0 -6 -102z"/>
<path d="M8090 3868 c-52 -100 -96 -185 -98 -190 -2 -4 28 -8 68 -8 l71 0 21
50 21 51 66 -3 65 -3 15 -47 15 -48 69 0 c38 0 67 4 65 9 -1 5 -32 91 -68 190
l-65 181 -75 0 -75 0 -95 -182z m177 27 c11 -35 11 -35 -19 -35 -25 0 -29 3
-23 18 4 9 10 25 12 35 8 27 19 20 30 -18z"/>
<path d="M8546 3978 c-3 -40 -8 -126 -11 -190 l-5 -118 60 0 60 0 0 96 c0 61
4 93 10 89 6 -3 10 -16 10 -27 0 -19 4 -20 56 -15 67 7 101 27 120 72 18 44
18 69 -1 110 -23 46 -51 55 -180 55 l-113 0 -6 -72z m182 -36 c5 -30 -14 -52
-44 -52 -21 0 -24 5 -24 41 0 39 1 40 33 37 25 -2 33 -8 35 -26z"/>
<path d="M8957 4043 c-4 -3 -7 -57 -7 -120 l0 -113 54 0 54 0 6 88 c4 48 9
102 12 120 l5 32 -59 0 c-32 0 -62 -3 -65 -7z"/>
<path d="M8940 3725 l0 -55 60 0 60 0 0 55 0 55 -60 0 -60 0 0 -55z"/>
</g>
</svg>
